:SAMPLES-PER-SECOND 30
:FULLY-SPECIFIED
:DEGREES
309
root  9.92404 40.5433 -6.36044 -132.742 -85.6384 130.654
RightUpLeg  1.7577 -13.1083 -17.203
RightLeg  3.74041 -5.49538 1.88073
RightFoot  1.92257 -0.954323 8.30692
RightToes  0.00048216 0.542163 -0.142577
Spine  3.63321 -2.08842 -5.35483
Spine1  7.96048 -3.0364 2.90953
HEad  -26.6073 19.1926 -12.1182
LeftShoulder1  10.1365 -14.2968 -49.7182
LeftArm  -3.73031 16.7622 -19.1869
LeftForeArm  31.8638 -13.4743 -5.52481
LeftHand  -0.25398 0.0180481 5.50724
RightShoulder  5.38028 8.68211 38.1032
RightArm  -1.99268 -10.2095 32.5787
RightForeArm  23.0722 13.0075 6.06311
RightHand  -2.03829 9.37911 -16.3773
LeftUpLeg  2.80047 5.99233 4.2346
LeftLeg  3.38185 10.4627 -3.52535
LeftFoot  -2.43641 0.235614 -2.82506
LeftToes  1.06241e-005 4.65855e-005 -8.18508e-006
310
root  10.0698 40.5417 -6.36816 -129.268 -85.8941 127.36
RightUpLeg  1.47433 -13.1114 -17.0867
RightLeg  3.68877 -5.87954 1.92479
RightFoot  2.05352 -0.970297 8.36838
RightToes  0.00048216 0.542163 -0.142577
Spine  4.59976 -2.10647 -5.55346
Spine1  7.03017 -3.12549 3.11466
HEad  -26.2088 19.3851 -12.9662
LeftShoulder1  10.275 -14.5334 -49.737
LeftArm  -3.82812 17.5866 -19.0504
LeftForeArm  32.3258 -13.1785 -5.54929
LeftHand  -0.25398 0.0180481 5.50724
RightShoulder  5.37079 8.67709 38.0459
RightArm  -2.34452 -9.60058 32.6409
RightForeArm  23.8394 12.419 6.17097
RightHand  -1.98699 9.19928 -16.1672
LeftUpLeg  2.20543 5.99668 4.26904
LeftLeg  3.6045 10.1453 -3.51028
LeftFoot  -2.36768 0.234513 -2.80758
LeftToes  1.06241e-005 4.65855e-005 -8.18508e-006
311
root  10.222 40.5377 -6.37898 -124.218 -86.1855 122.506
RightUpLeg  1.14493 -13.1526 -16.9922
RightLeg  3.7502 -6.32098 1.9819
RightFoot  2.12243 -0.971412 8.33864
RightToes  0.00048216 0.542163 -0.142577
Spine  5.65081 -2.15048 -5.7314
Spine1  6.07467 -3.23189 3.27738
HEad  -25.6767 19.3712 -13.918
LeftShoulder1  10.3819 -14.7205 -49.7388
LeftArm  -3.59028 17.9823 -18.9159
LeftForeArm  32.6816 -13.0466 -5.60736
LeftHand  -0.25398 0.0180481 5.50724
RightShoulder  5.42014 8.74528 38.1971
RightArm  -2.04114 -8.97729 32.5745
RightForeArm  23.6834 12.5317 6.19591
RightHand  -1.90953 8.89655 -15.8762
LeftUpLeg  1.50422 5.96301 4.27349
LeftLeg  3.92362 9.77489 -3.44779
LeftFoot  -2.24752 0.232004 -2.7494
LeftToes  1.06241e-005 4.65855e-005 -8.18508e-006
312
root  10.3731 40.5379 -6.39683 -119.792 -86.335 118.265
RightUpLeg  0.716636 -13.2014 -16.9226
RightLeg  3.92894 -6.65687 2.00132
RightFoot  2.20176 -0.966994 8.25701
RightToes  0.00048216 0.542163 -0.142577
Spine  6.64213 -2.13276 -5.93895
Spine1  5.35358 -3.27194 3.39474
HEad  -25.212 19.1455 -14.9694
LeftShoulder1  10.4717 -14.8164 -49.9059
LeftArm  -3.19228 17.7298 -18.6437
LeftForeArm  32.9229 -12.9143 -5.72748
LeftHand  -0.25398 0.0180481 5.50724
RightShoulder  5.51109 8.89632 38.3841
RightArm  -0.932571 -8.21993 32.5139
RightForeArm  22.3477 13.1332 6.23769
RightHand  -1.912 8.83046 -15.9643
LeftUpLeg  0.953244 5.90289 4.23123
LeftLeg  3.9882 9.57065 -3.43482
LeftFoot  -1.95337 0.233704 -2.70338
LeftToes  1.06241e-005 4.65855e-005 -8.18508e-006
313
root  10.5146 40.5444 -6.42277 -116.149 -86.412 114.801
RightUpLeg  0.319808 -13.2394 -16.851
RightLeg  4.01505 -6.93762 2.03242
RightFoot  2.35271 -0.971248 8.20922
RightToes  0.00048216 0.542163 -0.142577
Spine  7.40916 -2.09449 -6.03915
Spine1  4.99897 -3.2351 3.2589
HEad  -24.9365 18.8486 -15.8452
LeftShoulder1  10.5469 -14.8996 -50.0363
LeftArm  -2.8955 16.9926 -18.4369
LeftForeArm  33.1675 -12.8127 -5.83613
LeftHand  -0.25398 0.0180481 5.50724
RightShoulder  5.6046 9.05766 38.5508
RightArm  0.572926 -7.13564 32.6262
RightForeArm  20.6917 13.6879 6.34166
RightHand  -1.97794 8.96397 -16.3468
LeftUpLeg  0.599594 5.82976 4.18638
LeftLeg  3.72907 9.47293 -3.46702
LeftFoot  -1.55179 0.241942 -2.71638
LeftToes  1.06241e-005 4.65855e-005 -8.18508e-006
314
root  10.6522 40.5515 -6.45504 -112.119 -86.5206 111.001
RightUpLeg  -0.0698246 -13.2561 -16.7264
RightLeg  4.01122 -7.27696 2.08792
RightFoot  2.52459 -0.974849 8.14604
RightToes  0.00048216 0.542163 -0.142577
Spine  7.93063 -2.08892 -5.94006
Spine1  4.9314 -3.14876 2.80803
HEad  -24.8591 18.5364 -16.4007
LeftShoulder1  10.6018 -15.0273 -49.9506
LeftArm  -2.66214 15.9672 -18.4667
LeftForeArm  33.349 -12.8911 -5.88505
LeftHand  -0.25398 0.0180481 5.50724
RightShoulder  5.6904 9.18254 38.778
RightArm  1.92902 -5.64805 32.9179
RightForeArm  19.8559 13.8883 6.49293
RightHand  -2.02556 9.05603 -16.6231
LeftUpLeg  0.216672 5.78509 4.19284
LeftLeg  3.43432 9.31624 -3.51312
LeftFoot  -1.17928 0.250483 -2.7379
LeftToes  1.06241e-005 4.65855e-005 -8.18508e-006
315
root  10.7967 40.5538 -6.48979 -108.179 -86.6299 107.399
RightUpLeg  -0.657209 -13.2577 -16.5309
RightLeg  4.13606 -7.64186 2.11124
RightFoot  2.65965 -0.959652 7.9512
RightToes  0.00048216 0.542163 -0.142577
Spine  8.27885 -2.08076 -5.76491
Spine1  5.03724 -3.02598 2.2645
HEad  -24.8655 18.1149 -16.7509
LeftShoulder1  10.6538 -15.1506 -49.8643
LeftArm  -2.26489 14.5751 -18.5635
LeftForeArm  33.315 -13.1521 -5.91909
LeftHand  -0.25398 0.0180481 5.50724
RightShoulder  5.79438 9.32216 39.0859
RightArm  3 -3.83421 33.2922
RightForeArm  20.0005 13.8326 6.65037
RightHand  -2.05278 9.13543 -16.7496
LeftUpLeg  -0.392954 5.77821 4.2304
LeftLeg  3.34618 9.13959 -3.55587
LeftFoot  -0.872153 0.254306 -2.71906
LeftToes  1.06241e-005 4.65855e-005 -8.18508e-006
316
root  10.9471 40.5506 -6.52347 -105.535 -86.6923 105.121
RightUpLeg  -1.40383 -13.2958 -16.3281
RightLeg  4.42953 -7.89158 2.11535
RightFoot  2.77566 -0.931797 7.66768
RightToes  0.00048216 0.542163 -0.142577
Spine  8.5613 -2.02261 -5.62415
Spine1  5.29623 -2.86378 1.77975
HEad  -24.7934 17.4676 -16.896
LeftShoulder1  10.734 -15.2202 -50.0518
LeftArm  -1.75312 12.6636 -18.5197
LeftForeArm  33.1833 -13.3996 -5.99037
LeftHand  -0.25398 0.0180481 5.50724
RightShoulder  5.94908 9.56236 39.4229
RightArm  4.0918 -1.86115 33.6531
RightForeArm  20.2695 13.7954 6.79429
RightHand  -2.10188 9.32514 -16.924
LeftUpLeg  -1.12445 5.74502 4.23838
LeftLeg  3.43717 9.08832 -3.5387
LeftFoot  -0.606167 0.25888 -2.71685
LeftToes  1.06241e-005 4.65855e-005 -8.18508e-006
317
root  11.0917 40.5445 -6.55714 -104.368 -86.7299 104.175
RightUpLeg  -1.98976 -13.4134 -16.1929
RightLeg  4.69506 -7.94053 2.18914
RightFoot  2.8954 -0.912712 7.45972
RightToes  0.00048216 0.542163 -0.142577
Spine  8.8638 -1.9128 -5.45501
Spine1  5.75852 -2.64133 1.25549
HEad  -24.6146 16.5525 -16.6422
LeftShoulder1  10.8454 -15.2638 -50.4508
LeftArm  -1.43458 10.2856 -18.4281
LeftForeArm  33.1933 -13.4932 -6.08837
LeftHand  -0.25398 0.0180481 5.50724
RightShoulder  6.14973 9.89421 39.7746
RightArm  5.41997 0.160321 33.9787
RightForeArm  20.0014 13.8869 6.93862
RightHand  -2.13096 9.43118 -17.0327
LeftUpLeg  -1.70302 5.64942 4.21924
LeftLeg  3.57966 9.16963 -3.41407
LeftFoot  -0.389663 0.270046 -2.79299
LeftToes  1.06241e-005 4.65855e-005 -8.18508e-006
318
root  11.2218 40.5385 -6.59439 -104.969 -86.7636 104.815
RightUpLeg  -2.30713 -13.5483 -16.0989
RightLeg  4.82755 -7.83545 2.32782
RightFoot  2.99974 -0.90285 7.3536
RightToes  0.00048216 0.542163 -0.142577
Spine  9.14144 -1.76275 -5.19196
Spine1  6.45622 -2.33741 0.60392
HEad  -24.4531 15.4031 -15.9971
LeftShoulder1  10.9545 -15.3056 -50.8404
LeftArm  -1.39485 7.64585 -18.5037
LeftForeArm  33.2856 -13.5084 -6.17303
LeftHand  -0.25398 0.0180481 5.50724
RightShoulder  6.34578 10.2094 40.13
RightArm  6.66488 2.27548 34.4038
RightForeArm  19.6301 13.8976 7.11353
RightHand  -2.06008 9.16653 -16.7712
LeftUpLeg  -2.0293 5.57521 4.24372
LeftLeg  3.70722 9.28787 -3.26441
LeftFoot  -0.224983 0.281676 -2.88122
LeftToes  1.06241e-005 4.65855e-005 -8.18508e-006
